<?xml version="1.0" encoding="utf-8"?>
<!-- Generator: Adobe Illustrator 25.4.1, SVG Export Plug-In . SVG Version: 6.00 Build 0)  -->
<svg version="1.1" id="레이어_1" xmlns="http://www.w3.org/2000/svg" xmlns:xlink="http://www.w3.org/1999/xlink" x="0px"
	 y="0px" viewBox="0 0 198.4 198.4" style="enable-background:new 0 0 198.4 198.4;" xml:space="preserve">
<style type="text/css">
	.st0{fill:#120063;}
	.st1{fill:#FFFFFF;}
	.st2{fill:#BCF100;}
</style>
<g>
	<rect class="st0" width="198.4" height="198.4"/>
	<g>
		<g>
			<polygon class="st1" points="69.8,142.1 63.8,142.1 54.3,153.1 54.3,142.1 49.5,142.1 49.5,166.1 54.3,166.1 54.3,155.1 
				64.1,166.1 70.1,166.1 59.4,154.1 			"/>
			<path class="st1" d="M81.6,148.9c-2,0-3.7,0.9-5.1,2.1v-8.9h-4.8v15.8c0,4.8,3.2,8.8,9.1,8.8c5.3,0,9.1-3.7,9.1-8.8
				C89.8,153,86.6,148.9,81.6,148.9z M80.7,162.4c-2.5,0-4.5-2-4.5-4.4c0,0,0-0.1,0-0.1c0-0.5,0.1-1,0.2-1.5
				c0.6-1.8,2.3-3.1,4.3-3.1c2.5,0,4.5,2,4.5,4.5S83.2,162.4,80.7,162.4z"/>
			<path class="st1" d="M123.6,148.9c-2.3,0-4.1,0.8-5.5,2.1v-1.6h-4.8v12.3v4.4h4.7h0.1v-9.4c0-1.9,1.6-3.5,3.5-3.5
				c1.9,0,3.5,1.6,3.5,3.5v9.3v0.1h4.8v-10.7c0-0.1,0-0.1,0-0.2C130,151.7,127.1,148.9,123.6,148.9z"/>
			<path class="st1" d="M101.2,148.9c-5.4,0-9.2,3.7-9.2,8.8c0,4.9,3.3,8.9,8.3,8.9c2.3,0,4.5-1.2,5.7-2.9v2.3h4.3v-8.4h0
				c0-0.1,0-0.1,0-0.1C110.4,152.9,107.2,148.9,101.2,148.9z M101.3,162.3c-2.5,0-4.5-2-4.5-4.5c0-2.5,2-4.5,4.5-4.5
				c2.5,0,4.5,2,4.5,4.5C105.9,160.3,103.9,162.3,101.3,162.3z"/>
			<polygon class="st1" points="148.9,165.9 141.7,157.6 148.7,149.4 143.5,149.4 137.5,156.5 137.5,142 132.7,142 132.7,165.9 
				137.5,165.9 137.5,158.7 143.7,165.9 			"/>
		</g>
		<polygon class="st2" points="128.8,47 99.2,69.6 69.6,47 49.6,31.7 49.6,56.1 49.6,128.2 69.6,128.2 69.6,71.6 99.2,94.6 
			128.8,71.6 128.8,128.2 148.8,128.2 148.8,56.1 148.8,31.7 		"/>
	</g>
</g>
</svg>
