<?xml version="1.0" encoding="utf-8"?>
<!-- Generator: Adobe Illustrator 25.4.1, SVG Export Plug-In . SVG Version: 6.00 Build 0)  -->
<svg version="1.1" id="레이어_1" xmlns="http://www.w3.org/2000/svg" xmlns:xlink="http://www.w3.org/1999/xlink" x="0px"
	 y="0px" viewBox="0 0 283.5 114.6" style="enable-background:new 0 0 283.5 114.6;" xml:space="preserve">
<style type="text/css">
	.st0{fill:#FFFFFF;}
</style>
<g>
	<polygon class="st0" points="57.7,44.5 40.6,44.5 13.6,75.9 13.6,44.5 0,44.5 0,113 13.6,113 13.6,81.5 41.5,113 58.5,113 
		28.2,78.8 	"/>
	<polygon class="st0" points="283.5,113 263,89.3 282.8,65.6 268.2,65.6 250.8,86.1 250.8,44.5 237.2,44.5 237.2,113 250.8,113 
		250.8,92.4 268.5,113 	"/>
	<path class="st0" d="M91.2,64c-5.7,0-10.6,2.5-14.6,5.9V44.5H62.9v45.1c0,13.6,9,24.9,25.9,24.9c15.2,0,25.9-10.5,25.9-25.2
		C114.7,75.4,105.5,64,91.2,64z M88.8,102.2c-7,0-12.8-5.6-12.9-12.6c0-0.1,0-0.2,0-0.4c0-1.5,0.3-2.9,0.7-4.2
		c1.8-5.1,6.6-8.7,12.3-8.7c7.2,0,13,5.8,13,13C101.8,96.4,96,102.2,88.8,102.2z"/>
	<path class="st0" d="M211,64c-6.6,0-11.7,2.4-15.7,6v-4.5h-13.6v35.1V113H195h0.3V86.3c0-5.5,4.5-10,10-10c5.5,0,10,4.5,10,10v26.3
		v0.3h13.7V82.5c0-0.2,0-0.4,0-0.6C229.1,72,220.8,64,211,64z"/>
	<path class="st0" d="M147.3,64c-15.4,0-26.2,10.5-26.2,25.2c0,13.9,9.3,25.4,23.7,25.4c6.5,0,12.7-3.5,16.3-8.2v6.6h12.3V89.2h-0.1
		c0.1-0.2,0.1-0.3,0.1-0.3C173.5,75.4,164.4,64,147.3,64z M147.6,102.1c-7.2,0-13-5.8-13-13c0-7.2,5.8-13,13-13c7.2,0,13,5.8,13,13
		C160.6,96.3,154.7,102.1,147.6,102.1z"/>
	<path class="st0" d="M175.8,5.6c-2.5,0-4.4,1.1-5.5,2.5V5.9h-4.7v13.3v5.8h4.7v-11c0-2.3,1.9-4.2,4.2-4.2c2.3,0,4.2,1.9,4.2,4.2v11
		h4.7V12.3c0-0.1,0-0.1,0-0.2C183.5,8.3,179.5,5.6,175.8,5.6z"/>
	<path class="st0" d="M23.4,5.6c-2.5,0-5.2,1.7-6.4,3.4l0,0c-1.4-2.1-4.1-3.4-6.7-3.4c-2.5,0-4.4,1.1-5.5,2.5V5.9H0.1v13.3v5.8h4.7
		v-11c0-2.3,1.9-4.2,4.2-4.2s4.2,1.9,4.2,4.2v11H18v-12c0.5-1.8,2.1-3.2,4.1-3.2c2.3,0,4.2,1.9,4.2,4.2v11h4.7V12.3
		c0-0.1,0-0.1,0-0.2C31.1,8.3,27.1,5.6,23.4,5.6z"/>
	<path class="st0" d="M131.5,5.6c-2.5,0-5.2,1.7-6.4,3.4l0,0c-1.4-2.1-4.1-3.4-6.7-3.4c-2.5,0-4.4,1.1-5.5,2.5V5.9h-4.7v13.3v5.8
		h4.7v-11c0-2.3,1.9-4.2,4.2-4.2c2.3,0,4.2,1.9,4.2,4.2v11h4.7v-12c0.5-1.8,2.1-3.2,4.1-3.2c2.3,0,4.2,1.9,4.2,4.2v11h4.7V12.3
		c0-0.1,0-0.1,0-0.2C139.2,8.3,135.2,5.6,131.5,5.6z"/>
	<path class="st0" d="M54.3,15.4c0-0.1,0-0.3-0.1-0.6l0.1,0.1V5.8h-4.7v2.4c-1.7-1.4-3.7-2.4-6.1-2.4c-5.8,0-9.1,4-9.1,9.7
		c0,5.4,3.5,9.5,9,9.5c2.5,0,4.8-1,6.2-2.8v2.5h4.7v-9.2h0C54.3,15.4,54.3,15.4,54.3,15.4z M44.4,20.9c-2.7,0-4.9-2.5-4.9-5.6
		s2.2-5.6,4.9-5.6c2.7,0,4.9,2.5,4.9,5.6S47.2,20.9,44.4,20.9z"/>
	<polygon class="st0" points="76.2,24.7 67.9,15.3 76.2,5.8 69.9,5.8 63.8,13.7 63.8,0 58.8,0 58.8,24.7 63.8,24.7 63.8,16.8 
		70.1,24.7 	"/>
	<path class="st0" d="M152.4,5.6c-5.5,0-9.5,3.6-9.5,9.7c0,6.8,4.8,9.7,9.5,9.7c6.8,0,9.4-4.6,9.4-9.8S159.2,5.6,152.4,5.6z
		 M152.4,21.2c-2.3,0-4.7-1.7-4.7-5.9c0-3.7,2-5.9,4.7-5.9c3.3,0,4.6,2.6,4.6,5.8C157,18.4,155.7,21.2,152.4,21.2z"/>
	<path class="st0" d="M95.7,16.8h0.6c0.1-0.6,0.1-1.1,0.1-1.7c0-5.3-2.6-9.5-9.3-9.5c-5.5,0-9.5,3.6-9.5,9.7c0,6.8,4.8,9.7,9.5,9.7
		c5.1,0,7.9-2.6,8.9-6.1h-5c-0.7,1.4-1.9,2.3-3.9,2.3c-2,0-4.1-1.3-4.6-4.4H95.7z M87,9.4c2.8,0,4.1,1.8,4.5,4.3h-9
		C82.9,10.9,84.7,9.4,87,9.4z"/>
	<path class="st0" d="M205.7,16.8c0.1-0.6,0.1-1.1,0.1-1.7c0-5.3-2.6-9.5-9.3-9.5c-5.5,0-9.5,3.6-9.5,9.7c0,6.8,4.8,9.7,9.5,9.7
		c5.1,0,7.9-2.6,8.9-6.1h-5c-0.7,1.4-1.9,2.3-3.9,2.3c-2,0-4.1-1.3-4.6-4.4H205.7z M196.4,9.4c2.8,0,4.1,1.8,4.5,4.3h-9
		C192.4,10.9,194.2,9.4,196.4,9.4z"/>
	<polygon class="st0" points="222.3,5.8 217,18.2 212.3,5.8 207.1,5.8 214.6,24 210.4,33.8 215.7,33.8 219.4,24.9 219.5,24.6 
		227.4,5.8 	"/>
</g>
</svg>
