<?xml version="1.0" encoding="utf-8"?>
<!-- Generator: Adobe Illustrator 25.4.1, SVG Export Plug-In . SVG Version: 6.00 Build 0)  -->
<svg version="1.1" id="레이어_1" xmlns="http://www.w3.org/2000/svg" xmlns:xlink="http://www.w3.org/1999/xlink" x="0px"
	 y="0px" viewBox="0 0 283.5 70.1" style="enable-background:new 0 0 283.5 70.1;" xml:space="preserve">
<style type="text/css">
	.st0{fill:#140064;}
</style>
<g>
	<polygon class="st0" points="57.7,0 40.6,0 13.6,31.4 13.6,0 0,0 0,68.5 13.6,68.5 13.6,37 41.5,68.5 58.6,68.5 28.2,34.2 	"/>
	<polygon class="st0" points="283.5,68.5 263,44.8 282.9,21.1 268.2,21.1 250.8,41.6 250.8,0 237.2,0 237.2,68.5 250.8,68.5 
		250.8,47.9 268.5,68.5 	"/>
	<path class="st0" d="M91.2,19.4c-5.7,0-10.6,2.5-14.6,5.9V0H62.9v45.1c0,13.6,9,24.9,25.9,24.9c15.2,0,25.9-10.5,25.9-25.2
		C114.7,30.9,105.5,19.4,91.2,19.4z M88.8,57.7c-7,0-12.8-5.6-12.9-12.6c0-0.1,0-0.2,0-0.4c0-1.5,0.3-2.9,0.7-4.2
		c1.8-5.1,6.6-8.7,12.3-8.7c7.2,0,13,5.8,13,13C101.8,51.9,96,57.7,88.8,57.7z"/>
	<path class="st0" d="M211,19.4c-6.6,0-11.7,2.4-15.7,6v-4.5h-13.6V56v12.5H195h0.3V41.8c0-5.5,4.5-10,10-10c5.5,0,10,4.5,10,10
		v26.3v0.3h13.7V38c0-0.2,0-0.4,0-0.6C229.1,27.5,220.8,19.4,211,19.4z"/>
	<path class="st0" d="M147.3,19.5c-15.4,0-26.2,10.5-26.2,25.2c0,13.9,9.3,25.4,23.7,25.4c6.5,0,12.7-3.5,16.3-8.2v6.6h12.3V44.7
		h-0.1c0.1-0.2,0.1-0.3,0.1-0.3C173.5,30.8,164.4,19.5,147.3,19.5z M147.6,57.6c-7.2,0-13-5.8-13-13c0-7.2,5.8-13,13-13
		c7.2,0,13,5.8,13,13C160.6,51.8,154.8,57.6,147.6,57.6z"/>
</g>
</svg>
